<mxfile host="65bd71144e">
    <diagram id="PpeCMr5nW2hbqVhzfc0A" name="Page-1">
        <mxGraphModel dx="1649" dy="864" grid="1" gridSize="10" guides="1" tooltips="1" connect="1" arrows="1" fold="1" page="1" pageScale="1" pageWidth="827" pageHeight="1169" background="#FFFFFF" math="0" shadow="0">
            <root>
                <mxCell id="0"/>
                <mxCell id="1" parent="0"/>
                <mxCell id="xfDjOQceUIEUI76gIjfB-1" value="Page 1" style="rounded=0;whiteSpace=wrap;html=1;" parent="1" vertex="1">
                    <mxGeometry x="350" y="270" width="120" height="60" as="geometry"/>
                </mxCell>
                <mxCell id="xfDjOQceUIEUI76gIjfB-2" value="Page 0" style="rounded=0;whiteSpace=wrap;html=1;" parent="1" vertex="1">
                    <mxGeometry x="350" y="210" width="120" height="60" as="geometry"/>
                </mxCell>
                <mxCell id="xfDjOQceUIEUI76gIjfB-3" value="Page 8191" style="rounded=0;whiteSpace=wrap;html=1;" parent="1" vertex="1">
                    <mxGeometry x="350" y="540" width="120" height="60" as="geometry"/>
                </mxCell>
                <mxCell id="xfDjOQceUIEUI76gIjfB-5" value="Page 3" style="rounded=0;whiteSpace=wrap;html=1;" parent="1" vertex="1">
                    <mxGeometry x="350" y="390" width="120" height="60" as="geometry"/>
                </mxCell>
                <mxCell id="xfDjOQceUIEUI76gIjfB-6" value="Page 2" style="rounded=0;whiteSpace=wrap;html=1;" parent="1" vertex="1">
                    <mxGeometry x="350" y="330" width="120" height="60" as="geometry"/>
                </mxCell>
                <mxCell id="xfDjOQceUIEUI76gIjfB-7" value="Physical Memory" style="text;html=1;strokeColor=none;fillColor=none;align=center;verticalAlign=middle;whiteSpace=wrap;rounded=0;" parent="1" vertex="1">
                    <mxGeometry x="380" y="160" width="60" height="30" as="geometry"/>
                </mxCell>
                <mxCell id="xfDjOQceUIEUI76gIjfB-8" value="" style="endArrow=none;dashed=1;html=1;dashPattern=1 3;strokeWidth=2;rounded=0;entryX=0.5;entryY=1;entryDx=0;entryDy=0;exitX=0.5;exitY=0;exitDx=0;exitDy=0;" parent="1" source="xfDjOQceUIEUI76gIjfB-3" target="xfDjOQceUIEUI76gIjfB-5" edge="1">
                    <mxGeometry width="50" height="50" relative="1" as="geometry">
                        <mxPoint x="160" y="520" as="sourcePoint"/>
                        <mxPoint x="210" y="470" as="targetPoint"/>
                    </mxGeometry>
                </mxCell>
                <mxCell id="xfDjOQceUIEUI76gIjfB-9" value="Physical Address 0x01000000" style="shape=flexArrow;endArrow=classic;html=1;rounded=0;" parent="1" edge="1">
                    <mxGeometry x="-1" y="-30" width="50" height="50" relative="1" as="geometry">
                        <mxPoint x="270" y="210" as="sourcePoint"/>
                        <mxPoint x="350" y="210" as="targetPoint"/>
                        <mxPoint x="-30" y="-30" as="offset"/>
                    </mxGeometry>
                </mxCell>
                <mxCell id="xfDjOQceUIEUI76gIjfB-10" value="2^12 bytes, 4KB page" style="endArrow=classic;startArrow=classic;html=1;rounded=0;" parent="1" edge="1">
                    <mxGeometry width="50" height="50" relative="1" as="geometry">
                        <mxPoint x="330" y="330" as="sourcePoint"/>
                        <mxPoint x="330" y="270" as="targetPoint"/>
                    </mxGeometry>
                </mxCell>
                <mxCell id="xfDjOQceUIEUI76gIjfB-11" value="8192 * 4KB = 32MB" style="endArrow=classic;startArrow=classic;html=1;rounded=0;" parent="1" edge="1">
                    <mxGeometry width="50" height="50" relative="1" as="geometry">
                        <mxPoint x="150" y="600" as="sourcePoint"/>
                        <mxPoint x="150" y="210" as="targetPoint"/>
                    </mxGeometry>
                </mxCell>
                <mxCell id="xfDjOQceUIEUI76gIjfB-14" value="Tertiary Page Tables" style="text;html=1;strokeColor=none;fillColor=none;align=center;verticalAlign=middle;whiteSpace=wrap;rounded=0;" parent="1" vertex="1">
                    <mxGeometry x="630" y="160" width="60" height="30" as="geometry"/>
                </mxCell>
                <mxCell id="xfDjOQceUIEUI76gIjfB-15" value="Tertiary Page Table 0" style="rounded=0;whiteSpace=wrap;html=1;" parent="1" vertex="1">
                    <mxGeometry x="600" y="210" width="120" height="60" as="geometry"/>
                </mxCell>
                <mxCell id="xfDjOQceUIEUI76gIjfB-16" value="Tertiary Page Table 255" style="rounded=0;whiteSpace=wrap;html=1;" parent="1" vertex="1">
                    <mxGeometry x="600" y="540" width="120" height="60" as="geometry"/>
                </mxCell>
                <mxCell id="xfDjOQceUIEUI76gIjfB-17" value="" style="endArrow=none;dashed=1;html=1;dashPattern=1 3;strokeWidth=2;rounded=0;entryX=0.5;entryY=1;entryDx=0;entryDy=0;exitX=0.5;exitY=0;exitDx=0;exitDy=0;" parent="1" source="xfDjOQceUIEUI76gIjfB-16" target="xfDjOQceUIEUI76gIjfB-15" edge="1">
                    <mxGeometry width="50" height="50" relative="1" as="geometry">
                        <mxPoint x="420" y="550" as="sourcePoint"/>
                        <mxPoint x="420" y="460" as="targetPoint"/>
                    </mxGeometry>
                </mxCell>
                <mxCell id="xfDjOQceUIEUI76gIjfB-18" value="32 (2^5)&lt;br&gt;Entries in Page&lt;br&gt;Table" style="endArrow=classic;startArrow=classic;html=1;rounded=0;" parent="1" edge="1">
                    <mxGeometry y="40" width="50" height="50" relative="1" as="geometry">
                        <mxPoint x="800" y="600" as="sourcePoint"/>
                        <mxPoint x="800" y="540" as="targetPoint"/>
                        <mxPoint as="offset"/>
                    </mxGeometry>
                </mxCell>
                <mxCell id="xfDjOQceUIEUI76gIjfB-25" value="" style="endArrow=classic;startArrow=classic;html=1;rounded=0;exitX=1;exitY=0.5;exitDx=0;exitDy=0;entryX=0;entryY=0.5;entryDx=0;entryDy=0;" parent="1" source="xfDjOQceUIEUI76gIjfB-5" target="xfDjOQceUIEUI76gIjfB-15" edge="1">
                    <mxGeometry width="50" height="50" relative="1" as="geometry">
                        <mxPoint x="610" y="390" as="sourcePoint"/>
                        <mxPoint x="660" y="340" as="targetPoint"/>
                    </mxGeometry>
                </mxCell>
                <mxCell id="xfDjOQceUIEUI76gIjfB-26" value="" style="endArrow=classic;startArrow=classic;html=1;rounded=0;exitX=1;exitY=0.5;exitDx=0;exitDy=0;entryX=0;entryY=0.5;entryDx=0;entryDy=0;" parent="1" source="xfDjOQceUIEUI76gIjfB-6" target="xfDjOQceUIEUI76gIjfB-15" edge="1">
                    <mxGeometry width="50" height="50" relative="1" as="geometry">
                        <mxPoint x="480" y="430" as="sourcePoint"/>
                        <mxPoint x="610" y="250" as="targetPoint"/>
                    </mxGeometry>
                </mxCell>
                <mxCell id="xfDjOQceUIEUI76gIjfB-27" value="" style="endArrow=classic;startArrow=classic;html=1;rounded=0;exitX=1;exitY=0.5;exitDx=0;exitDy=0;entryX=0;entryY=0.5;entryDx=0;entryDy=0;" parent="1" source="xfDjOQceUIEUI76gIjfB-1" target="xfDjOQceUIEUI76gIjfB-15" edge="1">
                    <mxGeometry width="50" height="50" relative="1" as="geometry">
                        <mxPoint x="480" y="370" as="sourcePoint"/>
                        <mxPoint x="610" y="250" as="targetPoint"/>
                    </mxGeometry>
                </mxCell>
                <mxCell id="xfDjOQceUIEUI76gIjfB-28" value="" style="endArrow=classic;startArrow=classic;html=1;rounded=0;exitX=1;exitY=0.5;exitDx=0;exitDy=0;entryX=0;entryY=0.5;entryDx=0;entryDy=0;" parent="1" source="xfDjOQceUIEUI76gIjfB-2" target="xfDjOQceUIEUI76gIjfB-15" edge="1">
                    <mxGeometry width="50" height="50" relative="1" as="geometry">
                        <mxPoint x="480" y="310" as="sourcePoint"/>
                        <mxPoint x="610" y="250" as="targetPoint"/>
                    </mxGeometry>
                </mxCell>
                <mxCell id="xfDjOQceUIEUI76gIjfB-29" value="" style="endArrow=classic;startArrow=classic;html=1;rounded=0;exitX=1;exitY=0.5;exitDx=0;exitDy=0;entryX=0;entryY=0.5;entryDx=0;entryDy=0;" parent="1" source="xfDjOQceUIEUI76gIjfB-3" target="xfDjOQceUIEUI76gIjfB-16" edge="1">
                    <mxGeometry width="50" height="50" relative="1" as="geometry">
                        <mxPoint x="480" y="250" as="sourcePoint"/>
                        <mxPoint x="610" y="250" as="targetPoint"/>
                    </mxGeometry>
                </mxCell>
                <mxCell id="xfDjOQceUIEUI76gIjfB-30" value="32 Entries in Tertiary Page Table, 8192/32 = 256 Page Tables Required" style="text;html=1;strokeColor=none;fillColor=none;align=center;verticalAlign=middle;whiteSpace=wrap;rounded=0;" parent="1" vertex="1">
                    <mxGeometry x="570" y="610" width="180" height="30" as="geometry"/>
                </mxCell>
                <mxCell id="xfDjOQceUIEUI76gIjfB-31" value="Physical Address 0x03000000" style="shape=flexArrow;endArrow=classic;html=1;rounded=0;" parent="1" edge="1">
                    <mxGeometry x="-1" y="-30" width="50" height="50" relative="1" as="geometry">
                        <mxPoint x="270" y="599" as="sourcePoint"/>
                        <mxPoint x="350" y="599" as="targetPoint"/>
                        <mxPoint x="-30" y="-30" as="offset"/>
                    </mxGeometry>
                </mxCell>
                <mxCell id="xfDjOQceUIEUI76gIjfB-32" value="Secondary Page Tables" style="text;html=1;strokeColor=none;fillColor=none;align=center;verticalAlign=middle;whiteSpace=wrap;rounded=0;" parent="1" vertex="1">
                    <mxGeometry x="880" y="160" width="60" height="30" as="geometry"/>
                </mxCell>
                <mxCell id="xfDjOQceUIEUI76gIjfB-33" value="Secondary Page Table 0" style="rounded=0;whiteSpace=wrap;html=1;" parent="1" vertex="1">
                    <mxGeometry x="850" y="210" width="120" height="60" as="geometry"/>
                </mxCell>
                <mxCell id="xfDjOQceUIEUI76gIjfB-34" value="Secondary Page Table 1" style="rounded=0;whiteSpace=wrap;html=1;" parent="1" vertex="1">
                    <mxGeometry x="850" y="270" width="120" height="60" as="geometry"/>
                </mxCell>
                <mxCell id="xfDjOQceUIEUI76gIjfB-36" value="128 (2^7) entries&lt;br&gt;in page table, 2 page&lt;br&gt;tables required" style="endArrow=classic;startArrow=classic;html=1;rounded=0;" parent="1" edge="1">
                    <mxGeometry y="60" width="50" height="50" relative="1" as="geometry">
                        <mxPoint x="830" y="330" as="sourcePoint"/>
                        <mxPoint x="830" y="270" as="targetPoint"/>
                        <mxPoint as="offset"/>
                    </mxGeometry>
                </mxCell>
                <mxCell id="xfDjOQceUIEUI76gIjfB-37" value="" style="endArrow=classic;startArrow=classic;html=1;rounded=0;entryX=0;entryY=0.5;entryDx=0;entryDy=0;exitX=1;exitY=0.5;exitDx=0;exitDy=0;" parent="1" source="xfDjOQceUIEUI76gIjfB-15" target="xfDjOQceUIEUI76gIjfB-33" edge="1">
                    <mxGeometry width="50" height="50" relative="1" as="geometry">
                        <mxPoint x="750" y="240" as="sourcePoint"/>
                        <mxPoint x="840" y="240" as="targetPoint"/>
                    </mxGeometry>
                </mxCell>
                <mxCell id="xfDjOQceUIEUI76gIjfB-38" value="" style="endArrow=classic;startArrow=classic;html=1;rounded=0;entryX=1;entryY=0.5;entryDx=0;entryDy=0;exitX=0;exitY=0.5;exitDx=0;exitDy=0;" parent="1" source="xfDjOQceUIEUI76gIjfB-34" target="xfDjOQceUIEUI76gIjfB-16" edge="1">
                    <mxGeometry width="50" height="50" relative="1" as="geometry">
                        <mxPoint x="780" y="440" as="sourcePoint"/>
                        <mxPoint x="830" y="390" as="targetPoint"/>
                    </mxGeometry>
                </mxCell>
                <mxCell id="xfDjOQceUIEUI76gIjfB-39" value="Primary Page Table" style="text;html=1;strokeColor=none;fillColor=none;align=center;verticalAlign=middle;whiteSpace=wrap;rounded=0;" parent="1" vertex="1">
                    <mxGeometry x="1130" y="160" width="60" height="30" as="geometry"/>
                </mxCell>
                <mxCell id="xfDjOQceUIEUI76gIjfB-40" value="Primary Page Table 0" style="rounded=0;whiteSpace=wrap;html=1;" parent="1" vertex="1">
                    <mxGeometry x="1100" y="210" width="120" height="60" as="geometry"/>
                </mxCell>
                <mxCell id="xfDjOQceUIEUI76gIjfB-42" value="256 (2^8) entries&lt;br&gt;in page table, 1 page&lt;br&gt;table required" style="endArrow=classic;startArrow=classic;html=1;rounded=0;" parent="1" edge="1">
                    <mxGeometry y="-70" width="50" height="50" relative="1" as="geometry">
                        <mxPoint x="1241" y="270" as="sourcePoint"/>
                        <mxPoint x="1241" y="210" as="targetPoint"/>
                        <mxPoint as="offset"/>
                    </mxGeometry>
                </mxCell>
                <mxCell id="xfDjOQceUIEUI76gIjfB-43" value="" style="endArrow=classic;startArrow=classic;html=1;rounded=0;entryX=0;entryY=0.5;entryDx=0;entryDy=0;exitX=1;exitY=0.5;exitDx=0;exitDy=0;" parent="1" source="xfDjOQceUIEUI76gIjfB-33" target="xfDjOQceUIEUI76gIjfB-40" edge="1">
                    <mxGeometry width="50" height="50" relative="1" as="geometry">
                        <mxPoint x="730" y="250" as="sourcePoint"/>
                        <mxPoint x="860" y="250" as="targetPoint"/>
                    </mxGeometry>
                </mxCell>
                <mxCell id="xfDjOQceUIEUI76gIjfB-44" value="" style="endArrow=classic;startArrow=classic;html=1;rounded=0;entryX=0;entryY=0.5;entryDx=0;entryDy=0;exitX=1;exitY=0.5;exitDx=0;exitDy=0;" parent="1" source="xfDjOQceUIEUI76gIjfB-34" target="xfDjOQceUIEUI76gIjfB-40" edge="1">
                    <mxGeometry width="50" height="50" relative="1" as="geometry">
                        <mxPoint x="980" y="250.0000000000001" as="sourcePoint"/>
                        <mxPoint x="1110" y="250.0000000000001" as="targetPoint"/>
                    </mxGeometry>
                </mxCell>
            </root>
        </mxGraphModel>
    </diagram>
</mxfile>